<?xml version="1.0" encoding="UTF-8" standalone="no"?>
<svg
   xmlns:dc="http://purl.org/dc/elements/1.1/"
   xmlns:cc="http://creativecommons.org/ns#"
   xmlns:rdf="http://www.w3.org/1999/02/22-rdf-syntax-ns#"
   xmlns:svg="http://www.w3.org/2000/svg"
   xmlns="http://www.w3.org/2000/svg"
   version="1.1"
   width="512"
   viewBox="0 0 512.001 512.001"
   height="512"
   enable-background="new 0 0 512.001 512.001"
   id="Layer_1">
  <metadata
     id="metadata33">
    <rdf:RDF>
      <cc:Work
         rdf:about="">
        <dc:format>image/svg+xml</dc:format>
        <dc:type
           rdf:resource="http://purl.org/dc/dcmitype/StillImage" />
      </cc:Work>
    </rdf:RDF>
  </metadata>
  <defs
     id="defs31" />
  <g
     id="g26">
    <g
       id="g24">
      <path
         id="path2"
         d="m137.055 100.005h237.892c5.522 0 10-4.477 10-10s-4.478-10-10-10h-237.892c-5.523 0-10 4.477-10 10s4.477 10 10 10z" />
      <path
         id="path4"
         d="m137.055 140.005h237.892c5.522 0 10-4.477 10-10s-4.478-10-10-10h-237.892c-5.523 0-10 4.477-10 10s4.477 10 10 10z" />
      <path
         id="path6"
         d="m137.055 180.005h118.945c5.523 0 10-4.477 10-10s-4.478-10-10-10h-118.945c-5.523 0-10 4.477-10 10s4.477 10 10 10z" />
      <path
         id="path8"
         d="m374.946 200.005h-192.895c-5.523 0-10 4.477-10 10s4.477 10 10 10h192.896c5.522 0 10-4.477 10-10s-4.478-10-10.001-10z" />
      <path
         id="path10"
         d="m374.946 240.004h-237.891c-5.523 0-10 4.477-10 10s4.477 10 10 10h237.892c5.522 0 10-4.477 10-10s-4.478-10-10.001-10z" />
      <path
         id="path12"
         d="m374.946 280.004h-68.375c-5.522 0-10 4.477-10 10s4.478 10 10 10h68.375c5.522 0 10-4.477 10-10s-4.477-10-10-10z" />
      <path
         id="path14"
         d="m137.055 300.004h118.945c5.523 0 10-4.477 10-10s-4.478-10-10-10h-118.945c-5.523 0-10 4.477-10 10s4.477 10 10 10z" />
      <path
         id="path16"
         d="m374.946 320.004h-237.891c-5.523 0-10 4.477-10 10s4.477 10 10 10h237.892c5.522 0 10-4.477 10-10s-4.478-10-10.001-10z" />
      <path
         id="path18"
         d="m306.571 360.004h-169.516c-5.523 0-10 4.477-10 10s4.477 10 10 10h169.517c5.522 0 10-4.477 10-10s-4.478-10-10.001-10z" />
      <path
         id="path20"
         d="m511.139 403.855c-2.026-6.375-7.378-11.09-13.952-12.304l-40.399-7.526-18.735-35.322c-1.447-2.753-3.548-5.02-6.051-6.67v-292.028c0-13.413-5.263-26.026-14.819-35.515-9.416-9.35-21.838-14.486-34.946-14.486-.117 0-.236 0-.354.001h-331.883c-27.57 0-50 22.43-50 50v20c0 16.542 13.458 30 30 30h50v342.001c0 16.542 13.458 30 30 30h252.375l-2.706 19.125c-.997 6.663 1.73 13.287 7.12 17.287 3.188 2.367 6.979 3.579 10.799 3.579 2.636 0 5.285-.577 7.762-1.75l37.177-17.69 35.495 17.355c5.958 3.13 13.093 2.706 18.677-1.126 5.635-3.867 8.586-10.48 7.702-17.262l-5.33-40.778 27.807-28.738c4.665-4.79 6.299-11.745 4.261-18.153zm-431.139-323.85h-50c-5.514 0-10-4.486-10-10v-20c0-16.542 13.458-30 30-30s30 13.458 30 30zm30 372.001c-5.514 0-10-4.486-10-10v-392.001c0-11.246-3.733-21.638-10.023-30h291.975c7.949-.074 15.448 3.025 21.139 8.676 5.746 5.706 8.911 13.279 8.911 21.323v292.046c-2.417 1.602-4.459 3.784-5.9 6.43l-19.646 36.104-39.437 6.914c-6.582 1.143-11.98 5.809-14.09 12.178-2.104 6.355-.548 13.319 4.055 18.167l28.267 29.843-.046.322h-255.205zm351.342-11.701c-2.119 2.19-3.124 5.228-2.729 8.25l5.5 42.073-37.136-18.157c-2.739-1.34-5.938-1.355-8.689-.046l-38.355 18.251 5.797-40.965c.427-3.018-.545-6.065-2.642-8.278l-29.205-30.833 40.778-7.149c3.002-.526 5.601-2.393 7.058-5.07l20.277-37.266 19.385 36.544c1.428 2.692 4.006 4.587 7.003 5.145l41.724 7.773z" />
      <path
         id="path22"
         d="m137.055 220.005c5.523 0 10-4.477 10-10s-4.477-10-10-10h-.007c-5.523 0-9.996 4.477-9.996 10s4.48 10 10.003 10z" />
    </g>
  </g>
</svg>
